<?xml version="1.0" encoding="utf-8"?>
<!-- Generator: Adobe Illustrator 19.0.0, SVG Export Plug-In . SVG Version: 6.00 Build 0)  -->
<svg version="1.1" id="Camada_1" xmlns="http://www.w3.org/2000/svg" xmlns:xlink="http://www.w3.org/1999/xlink" x="0px" y="0px"
	 viewBox="0 0 450.5 122.9" style="enable-background:new 0 0 450.5 122.9;" xml:space="preserve">
<style type="text/css">
	.st0{fill:#BE4033;}
	.st1{fill:#DB3A73;}
	.st2{fill:#F26598;}
	.st3{fill:#230808;}
	.st4{font-family:'AdventPro-Thin';}
	.st5{font-size:150px;}
</style>
<g id="XMLID_108_">
	<g id="XMLID_2_">
		<rect id="XMLID_1_" x="52.2" y="100.1" class="st0" width="7" height="7"/>
		<rect id="XMLID_4_" x="61.1" y="108.9" class="st0" width="7" height="7"/>
		<rect id="XMLID_8_" x="61.1" y="100.1" class="st0" width="7" height="7"/>
		<rect id="XMLID_9_" x="70" y="100.1" class="st0" width="7" height="7"/>
		<rect id="XMLID_12_" x="52.2" y="90.2" class="st0" width="7" height="7"/>
		<rect id="XMLID_11_" x="61.1" y="90.2" class="st0" width="7" height="7"/>
		<rect id="XMLID_10_" x="70" y="90.2" class="st0" width="7" height="7"/>
		<rect id="XMLID_15_" x="43.2" y="90.2" class="st0" width="7" height="7"/>
		<rect id="XMLID_14_" x="78.9" y="90.2" class="st0" width="7" height="7"/>
		<rect id="XMLID_13_" x="34.3" y="81.5" class="st0" width="7" height="7"/>
		<rect id="XMLID_20_" x="52.2" y="81.5" class="st0" width="7" height="7"/>
		<rect id="XMLID_19_" x="61.1" y="81.5" class="st0" width="7" height="7"/>
		<rect id="XMLID_18_" x="70" y="81.5" class="st0" width="7" height="7"/>
		<rect id="XMLID_17_" x="43.2" y="81.5" class="st0" width="7" height="7"/>
		<rect id="XMLID_16_" x="78.9" y="81.5" class="st0" width="7" height="7"/>
		<rect id="XMLID_21_" x="88.1" y="81.5" class="st0" width="7" height="7"/>
		<rect id="XMLID_28_" x="34.2" y="72.5" class="st0" width="7" height="7"/>
		<rect id="XMLID_27_" x="52" y="72.5" class="st0" width="7" height="7"/>
		<rect id="XMLID_26_" x="60.9" y="72.5" class="st0" width="7" height="7"/>
		<rect id="XMLID_25_" x="69.9" y="72.5" class="st0" width="7" height="7"/>
		<rect id="XMLID_24_" x="43.1" y="72.5" class="st0" width="7" height="7"/>
		<rect id="XMLID_23_" x="78.8" y="72.5" class="st0" width="7" height="7"/>
		<rect id="XMLID_22_" x="87.9" y="72.5" class="st0" width="7" height="7"/>
		<rect id="XMLID_29_" x="96.9" y="72.5" class="st0" width="7" height="7"/>
		<rect id="XMLID_30_" x="25.3" y="72.5" class="st0" width="7" height="7"/>
		<rect id="XMLID_39_" x="34.2" y="63.6" class="st0" width="7" height="7"/>
		<rect id="XMLID_38_" x="52" y="63.6" class="st0" width="7" height="7"/>
		<rect id="XMLID_37_" x="60.9" y="63.6" class="st0" width="7" height="7"/>
		<rect id="XMLID_36_" x="69.9" y="63.6" class="st0" width="7" height="7"/>
		<rect id="XMLID_35_" x="43.1" y="63.6" class="st0" width="7" height="7"/>
		<rect id="XMLID_34_" x="78.8" y="63.6" class="st0" width="7" height="7"/>
		<rect id="XMLID_33_" x="87.9" y="63.6" class="st0" width="7" height="7"/>
		<rect id="XMLID_32_" x="96.9" y="63.6" class="st0" width="7" height="7"/>
		<rect id="XMLID_31_" x="25.3" y="63.6" class="st0" width="7" height="7"/>
		<rect id="XMLID_40_" x="105.8" y="63.6" class="st1" width="7" height="7"/>
		<rect id="XMLID_41_" x="16.4" y="63.6" class="st0" width="7" height="7"/>
		<rect id="XMLID_52_" x="34.2" y="54.7" class="st0" width="7" height="7"/>
		<rect id="XMLID_51_" x="52" y="54.7" class="st0" width="7" height="7"/>
		<rect id="XMLID_50_" x="60.9" y="54.7" class="st0" width="7" height="7"/>
		<rect id="XMLID_49_" x="69.9" y="54.7" class="st0" width="7" height="7"/>
		<rect id="XMLID_48_" x="43.1" y="54.7" class="st0" width="7" height="7"/>
		<rect id="XMLID_47_" x="78.8" y="54.7" class="st0" width="7" height="7"/>
		<rect id="XMLID_46_" x="87.9" y="54.7" class="st0" width="7" height="7"/>
		<rect id="XMLID_45_" x="96.9" y="54.7" class="st0" width="7" height="7"/>
		<rect id="XMLID_44_" x="25.3" y="54.7" class="st0" width="7" height="7"/>
		<rect id="XMLID_43_" x="105.8" y="54.7" class="st1" width="7" height="7"/>
		<rect id="XMLID_42_" x="16.4" y="54.7" class="st0" width="7" height="7"/>
		<rect id="XMLID_63_" x="34.2" y="45.8" class="st0" width="7" height="7"/>
		<rect id="XMLID_62_" x="52" y="45.8" class="st0" width="7" height="7"/>
		<rect id="XMLID_61_" x="60.9" y="45.8" class="st1" width="7" height="7"/>
		<rect id="XMLID_60_" x="69.9" y="45.8" class="st0" width="7" height="7"/>
		<rect id="XMLID_59_" x="43.1" y="45.8" class="st0" width="7" height="7"/>
		<rect id="XMLID_58_" x="78.8" y="45.8" class="st1" width="7" height="7"/>
		<rect id="XMLID_57_" x="87.9" y="45.8" class="st0" width="7" height="7"/>
		<rect id="XMLID_56_" x="96.9" y="45.8" class="st1" width="7" height="7"/>
		<rect id="XMLID_55_" x="25.3" y="45.8" class="st0" width="7" height="7"/>
		<rect id="XMLID_54_" x="105.8" y="45.8" class="st1" width="7" height="7"/>
		<rect id="XMLID_53_" x="16.4" y="45.8" class="st0" width="7" height="7"/>
		<rect id="XMLID_64_" x="7.4" y="45.8" class="st0" width="7" height="7"/>
		<rect id="XMLID_65_" x="114.7" y="45.8" class="st1" width="7" height="7"/>
		<rect id="XMLID_78_" x="34.2" y="36.9" class="st0" width="7" height="7"/>
		<rect id="XMLID_77_" x="52" y="36.9" class="st1" width="7" height="7"/>
		<rect id="XMLID_76_" x="60.9" y="36.9" class="st1" width="7" height="7"/>
		<rect id="XMLID_75_" x="69.9" y="36.9" class="st1" width="7" height="7"/>
		<rect id="XMLID_74_" x="43.1" y="36.9" class="st0" width="7" height="7"/>
		<rect id="XMLID_73_" x="78.8" y="36.9" class="st1" width="7" height="7"/>
		<rect id="XMLID_72_" x="87.9" y="36.9" class="st1" width="7" height="7"/>
		<rect id="XMLID_71_" x="96.9" y="36.9" class="st1" width="7" height="7"/>
		<rect id="XMLID_70_" x="25.3" y="36.9" class="st0" width="7" height="7"/>
		<rect id="XMLID_69_" x="105.8" y="36.9" class="st1" width="7" height="7"/>
		<rect id="XMLID_68_" x="16.4" y="36.9" class="st0" width="7" height="7"/>
		<rect id="XMLID_67_" x="7.4" y="36.9" class="st0" width="7" height="7"/>
		<rect id="XMLID_66_" x="114.7" y="36.9" class="st1" width="7" height="7"/>
		<rect id="XMLID_91_" x="34.1" y="27.8" class="st0" width="7" height="7"/>
		<rect id="XMLID_90_" x="51.9" y="27.8" class="st1" width="7" height="7"/>
		<rect id="XMLID_89_" x="60.8" y="27.8" class="st2" width="7" height="7"/>
		<rect id="XMLID_88_" x="69.7" y="27.8" class="st1" width="7" height="7"/>
		<rect id="XMLID_87_" x="43" y="27.8" class="st0" width="7" height="7"/>
		<rect id="XMLID_86_" x="78.7" y="27.8" class="st1" width="7" height="7"/>
		<rect id="XMLID_85_" x="87.8" y="27.8" class="st1" width="7" height="7"/>
		<rect id="XMLID_84_" x="96.7" y="27.8" class="st1" width="7" height="7"/>
		<rect id="XMLID_83_" x="25.2" y="27.8" class="st0" width="7" height="7"/>
		<rect id="XMLID_82_" x="105.7" y="27.8" class="st2" width="7" height="7"/>
		<rect id="XMLID_81_" x="16.2" y="27.8" class="st0" width="7" height="7"/>
		<rect id="XMLID_80_" x="7.3" y="27.8" class="st2" width="7" height="7"/>
		<rect id="XMLID_79_" x="114.6" y="27.8" class="st2" width="7" height="7"/>
		<rect id="XMLID_102_" x="34.1" y="18.8" class="st0" width="7" height="7"/>
		<rect id="XMLID_101_" x="51.9" y="18.8" class="st2" width="7" height="7"/>
		<rect id="XMLID_99_" x="69.7" y="18.8" class="st2" width="7" height="7"/>
		<rect id="XMLID_98_" x="43" y="18.8" class="st1" width="7" height="7"/>
		<rect id="XMLID_97_" x="78.7" y="18.8" class="st1" width="7" height="7"/>
		<rect id="XMLID_96_" x="87.8" y="18.8" class="st1" width="7" height="7"/>
		<rect id="XMLID_95_" x="96.7" y="18.8" class="st1" width="7" height="7"/>
		<rect id="XMLID_94_" x="25.2" y="18.8" class="st0" width="7" height="7"/>
		<rect id="XMLID_93_" x="105.7" y="18.8" class="st2" width="7" height="7"/>
		<rect id="XMLID_92_" x="16.2" y="18.8" class="st2" width="7" height="7"/>
		<polyline id="XMLID_104_" class="st2" points="78.9,16.7 78.9,9.8 85.9,9.8 85.9,16.7 		"/>
		<polyline id="XMLID_103_" class="st2" points="87.8,16.7 87.8,9.8 94.8,9.8 94.8,16.7 		"/>
		<polyline id="XMLID_100_" class="st2" points="96.7,16.7 96.7,9.8 103.7,9.8 103.7,16.7 		"/>
		<polyline id="XMLID_107_" class="st2" points="25.3,16.9 25.3,9.9 32.2,9.9 32.2,16.9 		"/>
		<polyline id="XMLID_106_" class="st2" points="34.2,16.9 34.2,9.9 41.2,9.9 41.2,16.9 		"/>
		<polyline id="XMLID_105_" class="st2" points="43.1,16.9 43.1,9.9 50.1,9.9 50.1,16.9 		"/>
	</g>
	<text id="XMLID_3_" transform="matrix(1 0 0 1 127.7394 112.4159)" class="st3 st4 st5">Deeto</text>
</g>
</svg>
